<svg xmlns="http://www.w3.org/2000/svg" viewBox="0 0 512 512">
  <defs>
    <linearGradient id="bg" x1="0%" y1="0%" x2="100%" y2="100%">
      <stop offset="0%" style="stop-color:#1a1d29;stop-opacity:1" />
      <stop offset="100%" style="stop-color:#0c1020;stop-opacity:1" />
    </linearGradient>
    <linearGradient id="wood1" x1="0%" y1="0%" x2="100%" y2="0%">
      <stop offset="0%" style="stop-color:#c8854a;stop-opacity:1" />
      <stop offset="50%" style="stop-color:#e8a063;stop-opacity:1" />
      <stop offset="100%" style="stop-color:#b87340;stop-opacity:1" />
    </linearGradient>
    <linearGradient id="wood2" x1="0%" y1="0%" x2="100%" y2="0%">
      <stop offset="0%" style="stop-color:#a86e3a;stop-opacity:1" />
      <stop offset="100%" style="stop-color:#d4935c;stop-opacity:1" />
    </linearGradient>
    <linearGradient id="top" x1="0%" y1="0%" x2="0%" y2="100%">
      <stop offset="0%" style="stop-color:#f0c080;stop-opacity:1" />
      <stop offset="100%" style="stop-color:#c8854a;stop-opacity:1" />
    </linearGradient>
  </defs>
  <rect width="512" height="512" rx="96" ry="96" fill="url(#bg)"/>
  <ellipse cx="256" cy="410" rx="130" ry="14" fill="#000" opacity="0.35"/>
  <rect x="126" y="160" width="260" height="230" rx="6" fill="url(#wood1)"/>
  <polygon points="116,150 396,150 406,160 136,160" fill="url(#top)"/>
  <polygon points="386,160 406,160 406,380 386,390" fill="url(#wood2)" opacity="0.7"/>
  <rect x="248" y="175" width="16" height="200" rx="3" fill="#9a6030" opacity="0.6"/>
  <rect x="136" y="175" width="100" height="95" rx="4" fill="#b87a42" opacity="0.5"/>
  <rect x="276" y="175" width="100" height="95" rx="4" fill="#b87a42" opacity="0.5"/>
  <rect x="136" y="283" width="100" height="38" rx="4" fill="#9a6030" opacity="0.5"/>
  <rect x="136" y="329" width="100" height="38" rx="4" fill="#9a6030" opacity="0.5"/>
  <rect x="276" y="283" width="100" height="38" rx="4" fill="#9a6030" opacity="0.5"/>
  <rect x="276" y="329" width="100" height="38" rx="4" fill="#9a6030" opacity="0.5"/>
  <rect x="186" y="218" width="40" height="6" rx="3" fill="#d4a870" opacity="0.9"/>
  <rect x="326" y="218" width="40" height="6" rx="3" fill="#d4a870" opacity="0.9"/>
  <rect x="170" y="298" width="26" height="4" rx="2" fill="#d4a870" opacity="0.9"/>
  <rect x="170" y="344" width="26" height="4" rx="2" fill="#d4a870" opacity="0.9"/>
  <rect x="316" y="298" width="26" height="4" rx="2" fill="#d4a870" opacity="0.9"/>
  <rect x="316" y="344" width="26" height="4" rx="2" fill="#d4a870" opacity="0.9"/>
  <rect x="136" y="375" width="250" height="16" rx="3" fill="#7a4e28" opacity="0.8"/>
  <text x="258" y="145" font-family="Arial,sans-serif" font-size="28" font-weight="bold" fill="#e8a063" text-anchor="middle" opacity="0.9">3D</text>
</svg>
